<svg width="17" height="24" viewBox="0 0 17 24" fill="none" xmlns="http://www.w3.org/2000/svg">
<path d="M6.93623 1.62818C6.42007 1.26452 5.79827 1.07599 5.15064 0.983639C4.51532 0.893314 4.70442 -0.0845665 5.33911 0.00590375C6.46055 0.165446 7.49629 0.612629 8.22614 1.48168C12.8845 1.13425 16.8026 2.79836 16.9932 5.21492C17.0843 6.36809 16.2475 6.71384 14.8428 6.7987L14.9173 7.80291L14.9912 8.80016C15.7594 9.13074 16.2255 9.97178 16.2255 11.0654C16.2255 11.7225 16.0699 12.2525 15.7628 12.6408C15.4538 13.0314 15.007 13.2527 14.4644 13.2857C13.9115 14.2609 13.1009 15.1473 12.1583 15.8024C11.0294 16.5872 9.77949 17.002 8.54373 17.002C8.52861 17.002 8.51344 17.0013 8.49832 17.001C8.48316 17.0013 8.46804 17.002 8.45292 17.002C7.21711 17.002 5.96719 16.5872 4.83831 15.8024C3.89574 15.1474 3.08513 14.2609 2.53217 13.2857C1.98964 13.2527 1.54279 13.0315 1.2338 12.6408C0.926746 12.2525 0.771069 11.7225 0.771069 11.0654C0.771069 9.97173 1.23714 9.13069 2.00543 8.80016L2.07663 7.83976C0.854437 7.90922 0.0912132 7.62066 0.00740814 6.5542C-0.167639 4.33983 2.84807 2.25921 6.93623 1.62818ZM1.65597 11.0654C1.65597 11.9542 1.99911 12.405 2.67621 12.405C2.69133 12.405 2.71422 12.4032 2.73828 12.4013L3.05335 12.3776L3.18758 12.6381C4.05137 14.3136 6.06746 16.1169 8.45278 16.1169C8.46553 16.1169 8.47799 16.1164 8.49064 16.116V16.1156C8.49316 16.1156 8.49567 16.1157 8.49818 16.1158C8.50069 16.1158 8.5032 16.1157 8.50572 16.1156V16.116C8.51832 16.1164 8.53088 16.1169 8.54358 16.1169C10.9288 16.1169 12.9449 14.3136 13.8087 12.6381L13.943 12.3776L14.258 12.4013C14.2822 12.4032 14.305 12.405 14.3202 12.405C14.9972 12.405 15.3404 11.9542 15.3404 11.0654C15.3404 10.7725 15.2832 9.82045 14.5663 9.58483C14.5216 9.8915 14.3483 10.8759 13.9543 10.9382C13.4873 11.0119 13.9229 9.56227 13.4063 9.13315C13.1779 9.14233 10.068 8.67109 8.74196 8.43886C8.27391 8.35689 7.96801 8.40519 7.55112 8.49315C5.89696 8.84213 3.84527 9.14349 3.59004 9.13315C3.0734 9.56227 3.50889 11.0119 3.0419 10.9382C2.648 10.8759 2.47469 9.8915 2.42996 9.58483C1.7132 9.82045 1.65597 10.7725 1.65597 11.0654Z" fill="#C2C7D0"/>
<path d="M4.27147 17.4344C4.60007 17.4344 5.58553 17.4369 5.80304 17.4376C5.80709 17.4374 5.8111 17.4369 5.81521 17.4369C5.81975 17.4369 5.82419 17.4375 5.82868 17.4376C5.83984 17.4377 5.84646 17.4377 5.84646 17.4377L5.84805 17.4386C6.00755 17.4493 6.14579 17.5359 6.22742 17.663L6.22834 17.6636C6.22834 17.6636 6.23365 17.6728 6.24346 17.6895C6.24433 17.691 6.24519 17.6924 6.24602 17.694C6.42536 17.9995 7.92201 20.5207 8.49932 20.5375C9.07663 20.5207 10.5733 17.9995 10.7525 17.694C10.7534 17.6924 10.7544 17.691 10.7552 17.6895C10.765 17.6728 10.7703 17.6636 10.7703 17.6636L10.7713 17.663C10.8527 17.5359 10.9911 17.4493 11.1505 17.4386L11.1521 17.4377C11.1521 17.4377 11.1587 17.4377 11.17 17.4376C11.1744 17.4375 11.1789 17.4369 11.1834 17.4369C11.1875 17.4369 11.1915 17.4374 11.1956 17.4376C11.4132 17.4369 12.3986 17.4344 12.7272 17.4344C14.2103 17.4344 16.1963 18.7849 16.1963 20.5062C16.1963 22.2274 16.1963 23.2601 16.1963 23.2601H8.50584H8.49927H8.4927H0.802202C0.802202 23.2601 0.802202 22.2274 0.802202 20.5062C0.802299 18.7849 2.78834 17.4344 4.27147 17.4344Z" fill="#C2C7D0"/>
</svg>
