<svg width="23" height="23" viewBox="0 0 23 23" fill="none" xmlns="http://www.w3.org/2000/svg">
<path d="M2.4894 15.764C2.4894 17.5307 3.9527 18.9689 5.7554 18.979C5.03823 19.3247 4.54358 20.0472 4.54358 20.8811C4.54358 22.0495 5.51476 23 6.70854 23C7.90232 23 8.87366 22.0495 8.87366 20.8811C8.87366 20.0476 8.37924 19.3253 7.6627 18.9795H16.0222C15.3057 19.3253 14.8115 20.0476 14.8115 20.8811C14.8115 22.0495 15.7827 23 16.9764 23C18.1702 23 19.1414 22.0495 19.1414 20.8811C19.1414 20.0476 18.6471 19.3253 17.9306 18.9795H19.7146C20.1542 18.9795 20.5104 18.6308 20.5104 18.2006C20.5104 17.7705 20.1542 17.4218 19.7146 17.4218H5.77439C4.84072 17.4218 4.08097 16.678 4.08097 15.764V14.4979C4.57586 14.7904 5.15542 14.9591 5.77439 14.9591H16.9765C18.7091 14.9591 20.439 13.6818 20.9147 12.0514L22.9694 5.01315C23.038 4.77819 22.9899 4.52535 22.8395 4.33019C22.6892 4.13504 22.4537 4.02043 22.2042 4.02043H4.08097V3.21559C4.08097 1.44249 2.60731 0 0.795747 0C0.35625 0 0 0.348795 0 0.778902C0 1.20901 0.35625 1.55773 0.795826 1.55773C1.72966 1.55773 2.4894 2.30147 2.4894 3.21566V15.764Z" fill="#C2C7D0"/>
</svg>
