<svg width="17" height="17" viewBox="0 0 17 17" fill="none" xmlns="http://www.w3.org/2000/svg">
<circle cx="8.77566" cy="8.7756" r="7.85256" fill="white"/>
<path d="M16.6282 8.7756C16.6282 13.1125 13.1125 16.6282 8.77566 16.6282C4.4388 16.6282 0.923096 13.1125 0.923096 8.7756C0.923096 4.43874 4.4388 0.923035 8.77566 0.923035C13.1125 0.923035 16.6282 4.43874 16.6282 8.7756ZM7.86736 12.9335L13.6935 7.10737C13.8913 6.90954 13.8913 6.58875 13.6935 6.39092L12.977 5.67447C12.7792 5.4766 12.4584 5.4766 12.2605 5.67447L7.50912 10.4258L5.2908 8.20752C5.09297 8.00969 4.77218 8.00969 4.57432 8.20752L3.85786 8.92397C3.66003 9.12181 3.66003 9.44259 3.85786 9.64043L7.15088 12.9334C7.34874 13.1313 7.66949 13.1313 7.86736 12.9335Z" fill="#FF0000"/>
</svg>
