<svg width="130" height="130" viewBox="0 0 130 130" fill="none" xmlns="http://www.w3.org/2000/svg">
<path d="M110.539 81.2957C108.112 80.1463 105.382 80.0102 102.854 80.9128C101.264 81.48 99.8745 82.4164 98.7754 83.6354C97.9024 82.6714 96.8383 81.8731 95.6183 81.2957C93.1912 80.1463 90.4627 80.0102 87.9336 80.9128C85.4153 81.8124 83.396 83.6344 82.2446 86.0455L75.5379 99.3152C75.2969 98.5664 75.1659 97.7699 75.1659 96.9417V81.5636C75.1946 81.4117 75.2106 81.2551 75.2106 81.0954V59.8338C89.9153 58.5444 101.488 46.1624 101.488 31.1284V13.9014C101.488 9.08908 97.5731 5.17435 92.7608 5.17435C87.9486 5.17435 84.0338 9.08908 84.0338 13.9014V31.1284C84.0338 37.3928 78.9369 42.4897 72.6715 42.4897H69.3748C72.0657 39.6084 73.7171 35.7452 73.7171 31.5004V29.8292C73.7171 20.9414 66.4866 13.7112 57.5991 13.7112C48.7124 13.7112 41.4819 20.9417 41.4819 29.8292V31.5004C41.4819 35.7454 43.1333 39.6086 45.8242 42.4897H42.5275C36.2621 42.4897 31.1652 37.3928 31.1652 31.1284V13.9014C31.1652 9.08908 27.2505 5.17435 22.4382 5.17435C17.6259 5.17435 13.7109 9.08908 13.7109 13.9014V31.1284C13.7109 46.213 25.3619 58.6267 40.137 59.8457V81.0954C40.137 81.1213 40.14 81.1469 40.1411 81.1738V96.9419C40.1411 97.646 40.1677 98.3582 40.2205 99.0585C40.3216 100.391 41.4345 101.406 42.7497 101.406C42.8142 101.406 42.8787 101.404 42.9442 101.399C44.3427 101.293 45.3901 100.074 45.2849 98.6756C45.2413 98.1023 45.2194 97.519 45.2194 96.9419V83.6347H70.0883V96.9419C70.0883 104.031 75.8558 109.799 82.9453 109.799C87.8757 109.799 92.4272 106.926 94.5496 102.477L101.712 88.3091C101.72 88.2903 101.73 88.2705 101.739 88.2507C102.308 87.0505 103.311 86.142 104.562 85.6956C105.814 85.2493 107.163 85.3168 108.365 85.8851C110.835 87.0553 111.897 90.011 110.744 92.4846L103.585 106.647C103.575 106.666 103.566 106.685 103.556 106.705C99.8034 114.628 91.713 119.748 82.9464 119.748C70.3711 119.748 60.1405 109.517 60.1405 96.9417V95.6216C60.1405 94.2193 59.0037 93.0825 57.6014 93.0825C56.1991 93.0825 55.0624 94.2193 55.0624 95.6216V96.9417C55.0624 106.337 59.7337 114.663 66.8759 119.717C62.1151 119.483 57.642 117.803 53.8771 114.814C52.7782 113.942 51.1814 114.126 50.3095 115.225C49.4386 116.324 49.6222 117.92 50.7211 118.792C55.6951 122.74 61.6797 124.826 68.0273 124.826C70.5288 124.826 73.0232 124.48 75.4521 123.802C77.8375 124.469 80.3507 124.826 82.9464 124.826C93.6551 124.826 103.537 118.579 108.132 108.909L115.292 94.7426C115.302 94.7228 115.311 94.704 115.321 94.6842C117.692 89.6746 115.547 83.6679 110.539 81.2957ZM46.5601 31.5004V29.8292C46.5601 23.7413 51.5122 18.7893 57.5999 18.7893C63.6868 18.7893 68.639 23.7415 68.639 29.8292V31.5004C68.639 37.2371 64.2403 41.9641 58.6374 42.4897H56.5614C50.9587 41.9649 46.5601 37.2369 46.5601 31.5004ZM18.7891 31.1284V13.9014C18.7891 11.8889 20.4255 10.2525 22.438 10.2525C24.4504 10.2525 26.0868 11.8889 26.0868 13.9014V31.1284C26.0868 40.1936 33.4621 47.5678 42.5273 47.5678H56.387C56.7877 47.5985 57.1914 47.6183 57.5999 47.6183C58.0074 47.6183 58.4111 47.5985 58.8118 47.5678H72.6715C81.7367 47.5678 89.112 40.1936 89.112 31.1284V13.9014C89.112 11.8889 90.7484 10.2525 92.7608 10.2525C94.7733 10.2525 96.4097 11.8889 96.4097 13.9014V31.1284C96.4097 44.2175 85.7614 54.8666 72.6725 54.8666C71.2702 54.8666 70.1335 56.0033 70.1335 57.4057V78.5563H45.2149V57.4057C45.2149 56.0033 44.0781 54.8666 42.6758 54.8666H42.527C29.4381 54.8666 18.7891 44.2173 18.7891 31.1284ZM90.0029 100.214C89.993 100.233 89.9841 100.252 89.9742 100.271C88.6948 102.974 85.9346 104.721 82.9451 104.721C81.5029 104.721 80.1531 104.325 78.9935 103.638C79.2256 103.262 79.4399 102.873 79.6293 102.477L86.7902 88.3088C86.8001 88.2901 86.809 88.2703 86.8189 88.2505C87.3872 87.0495 88.3901 86.1418 89.6416 85.6954C90.8923 85.248 92.2431 85.3155 93.4444 85.8848C94.5869 86.4264 95.4578 87.3567 95.921 88.5041L90.0029 100.214Z" fill="#050739"/>
<path d="M47.9126 107.686C47.241 106.455 45.6988 106.002 44.4671 106.672C43.2362 107.344 42.7819 108.886 43.4535 110.116C43.9098 110.976 44.7885 111.466 45.698 111.466C46.0997 111.466 46.5065 111.371 46.8863 111.169C48.1251 110.513 48.5961 108.974 47.9395 107.736L47.9126 107.686Z" fill="#050739"/>
<path d="M12.6953 104.609C11.293 104.609 10.1562 105.746 10.1562 107.148V110.656C10.1562 112.058 11.293 113.195 12.6953 113.195C14.0976 113.195 15.2344 112.058 15.2344 110.656V107.148C15.2344 105.746 14.0976 104.609 12.6953 104.609Z" fill="#050739"/>
<path d="M12.6953 121.415C11.293 121.415 10.1562 122.552 10.1562 123.954V127.461C10.1562 128.863 11.293 130 12.6953 130C14.0976 130 15.2344 128.863 15.2344 127.461V123.954C15.2344 122.551 14.0976 121.415 12.6953 121.415Z" fill="#050739"/>
<path d="M22.8517 114.766H19.3447C17.9424 114.766 16.8057 115.902 16.8057 117.305C16.8057 118.707 17.9424 119.844 19.3447 119.844H22.8517C24.254 119.844 25.3907 118.707 25.3907 117.305C25.3907 115.902 24.254 114.766 22.8517 114.766Z" fill="#050739"/>
<path d="M6.04627 114.766H2.53906C1.13674 114.766 0 115.902 0 117.305C0 118.707 1.13674 119.844 2.53906 119.844H6.04627C7.44859 119.844 8.58533 118.707 8.58533 117.305C8.58533 115.902 7.44859 114.766 6.04627 114.766Z" fill="#050739"/>
<path d="M117.305 0C115.902 0 114.766 1.13674 114.766 2.53906V6.04627C114.766 7.44859 115.902 8.58533 117.305 8.58533C118.707 8.58533 119.844 7.44859 119.844 6.04627V2.53906C119.844 1.13674 118.707 0 117.305 0Z" fill="#050739"/>
<path d="M117.305 16.8055C115.902 16.8055 114.766 17.9423 114.766 19.3446V22.8516C114.766 24.2539 115.902 25.3906 117.305 25.3906C118.707 25.3906 119.844 24.2539 119.844 22.8516V19.3446C119.844 17.942 118.707 16.8055 117.305 16.8055Z" fill="#050739"/>
<path d="M127.461 10.1562H123.954C122.551 10.1562 121.415 11.293 121.415 12.6953C121.415 14.0976 122.551 15.2344 123.954 15.2344H127.461C128.863 15.2344 130 14.0976 130 12.6953C130 11.293 128.863 10.1562 127.461 10.1562Z" fill="#050739"/>
<path d="M107.148 15.2344H110.656C112.058 15.2344 113.195 14.0976 113.195 12.6953C113.195 11.293 112.058 10.1562 110.656 10.1562H107.148C105.746 10.1562 104.609 11.293 104.609 12.6953C104.609 14.0976 105.746 15.2344 107.148 15.2344Z" fill="#050739"/>
</svg>
