<svg width="22" height="18" viewBox="0 0 22 18" fill="none" xmlns="http://www.w3.org/2000/svg">
<path d="M19.9375 18H2.0625C0.923398 18 0 16.9927 0 15.75V2.25C0 1.00734 0.923398 0 2.0625 0H19.9375C21.0766 0 22 1.00734 22 2.25V15.75C22 16.9927 21.0766 18 19.9375 18ZM4.8125 2.625C3.48356 2.625 2.40625 3.80025 2.40625 5.25C2.40625 6.69975 3.48356 7.875 4.8125 7.875C6.14144 7.875 7.21875 6.69975 7.21875 5.25C7.21875 3.80025 6.14144 2.625 4.8125 2.625ZM2.75 15H19.25V9.75L15.4896 5.64773C15.2882 5.42808 14.9618 5.42808 14.7604 5.64773L8.9375 12L6.55209 9.39773C6.35074 9.17808 6.02426 9.17808 5.82287 9.39773L2.75 12.75V15Z" fill="#757577"/>
</svg>
