<svg width="92" height="93" viewBox="0 0 92 93" fill="none" xmlns="http://www.w3.org/2000/svg">
<path d="M45.6034 0C20.4112 0 0 20.6613 0 46.1621C0 71.663 20.4112 92.3242 45.6034 92.3242C70.7956 92.3242 91.2068 71.663 91.2068 46.1621C91.2068 20.6613 70.7956 0 45.6034 0ZM45.6034 17.8692C54.5402 17.8692 61.7852 25.203 61.7852 34.2493C61.7852 43.2956 54.5402 50.6294 45.6034 50.6294C36.6666 50.6294 29.4215 43.2956 29.4215 34.2493C29.4215 25.203 36.6666 17.8692 45.6034 17.8692ZM45.6034 81.9005C34.8094 81.9005 25.137 76.9493 18.6643 69.206C22.1213 62.6167 28.8883 58.0749 36.7769 58.0749C37.2183 58.0749 37.6596 58.1494 38.0825 58.2797C40.473 59.0615 42.9738 59.564 45.6034 59.564C48.2329 59.564 50.7522 59.0615 53.1243 58.2797C53.5472 58.1494 53.9885 58.0749 54.4299 58.0749C62.3185 58.0749 69.0855 62.6167 72.5425 69.206C66.0698 76.9493 56.3974 81.9005 45.6034 81.9005Z" fill="#757577"/>
</svg>
