<svg width="24" height="22" viewBox="0 0 24 22" fill="none" xmlns="http://www.w3.org/2000/svg">
<path d="M8.70316 16.0652C8.4849 17.1382 8.34321 17.657 7.51498 17.7234C7.31089 17.7398 7.14469 17.8938 7.11286 18.0961C7.08096 18.2982 7.19179 18.496 7.38096 18.5743C7.4342 18.5963 8.70095 19.1139 10.1809 19.114C10.1812 19.114 10.1813 19.114 10.1815 19.114C11.2128 19.114 12.0975 18.864 12.8109 18.371C13.6564 17.7868 14.2392 16.8725 14.5491 15.6546L11.7011 12.7839C9.29423 13.1734 8.95325 14.8356 8.70316 16.0652Z" fill="#C2C7D0"/>
<path d="M23.8301 3.45736C23.7535 3.38013 23.6169 3.28806 23.4014 3.28806C23.1486 3.28806 22.4772 3.28806 18.3997 6.75781C16.5162 8.36052 14.3445 10.3433 12.6172 12.0305L15.3198 14.7547C17.0964 12.9081 19.1689 10.5936 20.8171 8.60713C21.8579 7.35293 22.6582 6.31803 23.1958 5.5313C23.9079 4.48924 24.2198 3.8501 23.8301 3.45736Z" fill="#C2C7D0"/>
<path d="M13.4823 19.3429C12.5677 19.9749 11.457 20.2953 10.1806 20.2953C8.50057 20.2952 7.08541 19.7305 6.92836 19.6657C6.23244 19.3773 5.82833 18.6561 5.94558 17.9121C6.0604 17.1833 6.6443 16.6294 7.37367 16.5501C7.43724 16.3603 7.50753 16.0145 7.54519 15.8296C7.68386 15.1481 7.87369 14.2146 8.45767 13.3837C9.0954 12.4765 10.0567 11.8948 11.3189 11.651C12.0433 10.9321 12.8699 10.1416 13.7324 9.33936C13.2964 9.24477 12.9065 8.9608 12.6974 8.53128C12.3374 7.79144 12.6514 6.90148 13.3977 6.54544C14.1459 6.18851 15.0433 6.50025 15.4027 7.2412C15.4737 7.38725 15.5175 7.53899 15.538 7.69131C16.2533 7.05063 16.9637 6.42877 17.6344 5.85809C17.6384 5.85469 17.6421 5.85144 17.6462 5.84805C16.8924 4.40556 15.8114 3.12752 14.4943 2.14895C12.603 0.743761 10.351 0.000590697 7.98186 0C7.98112 0 7.98061 0 7.98002 0C6.38115 0 4.43761 0.558651 2.90763 1.45821C1.03232 2.56074 -0.000369086 4.03527 9.89536e-08 5.60999C0.000590796 7.51115 1.07285 8.30638 1.93446 8.94529C2.63702 9.46636 3.1919 9.87785 3.1922 10.7797C3.19242 11.6815 2.63783 12.0926 1.93564 12.6131C1.07433 13.2517 0.00228905 14.0465 0.00287975 15.9479C0.00332277 17.5224 1.03667 18.9972 2.9125 20.1007C4.44359 21.0014 6.38816 21.5612 7.98733 21.5617C7.98843 21.5617 7.98939 21.5617 7.99043 21.5617C10.8926 21.5617 13.6208 20.4415 15.6727 18.4074C17.2113 16.8823 18.2316 14.9801 18.6464 12.9108C17.6162 14.0531 16.5792 15.1623 15.6513 16.1096C15.2578 17.5328 14.5291 18.6195 13.4823 19.3429ZM8.1999 4.47386C8.38435 3.67118 9.18932 3.17012 9.99813 3.35398C10.8058 3.53694 11.3119 4.33468 11.1288 5.13626C10.9443 5.93694 10.1389 6.43808 9.32998 6.25518C8.52161 6.07325 8.01531 5.27455 8.1999 4.47386ZM3.32666 7.20945C2.80943 6.56589 2.91575 5.62927 3.56412 5.11698C4.21241 4.60566 5.15686 4.71051 5.67504 5.35289C6.19117 5.9955 6.08447 6.93212 5.43662 7.44544C4.78974 7.95787 3.84381 7.85191 3.32666 7.20945ZM4.11612 17.031C3.46739 16.5182 3.3607 15.5816 3.87792 14.9383C4.39478 14.2962 5.3396 14.1909 5.98826 14.7035C6.6364 15.2161 6.74317 16.1528 6.22639 16.7951C5.7096 17.4384 4.76471 17.5436 4.11612 17.031Z" fill="#C2C7D0"/>
</svg>
